<svg width="32" height="32" viewBox="0 0 32 32" fill="none" xmlns="http://www.w3.org/2000/svg">
<path d="M22.9518 12L17.1151 3.25335C16.9904 3.07675 16.8244 2.93337 16.6316 2.83575C16.4388 2.73814 16.2251 2.68925 16.009 2.69335C15.5826 2.69335 15.1562 2.88002 14.903 3.26669L9.06623 12H2.68313C1.95021 12 1.35054 12.6 1.35054 13.3334C1.35054 13.4534 1.36387 13.5734 1.40384 13.6934L4.78862 26.0534C5.09512 27.1734 6.12121 28 7.34719 28H24.6708C25.8968 28 26.9229 27.1734 27.2427 26.0534L30.6275 13.6934L30.6675 13.3334C30.6675 12.6 30.0678 12 29.3349 12H22.9518ZM12.0113 12L16.009 6.13335L20.0068 12H12.0113ZM16.009 22.6667C14.5432 22.6667 13.3438 21.4667 13.3438 20C13.3438 18.5334 14.5432 17.3334 16.009 17.3334C17.4749 17.3334 18.6742 18.5334 18.6742 20C18.6742 21.4667 17.4749 22.6667 16.009 22.6667Z" fill="white"/>
</svg>
